<?xml version="1.0" encoding="utf-8"?>
<!-- Generator: Adobe Illustrator 16.0.0, SVG Export Plug-In . SVG Version: 6.00 Build 0)  -->
<!DOCTYPE svg PUBLIC "-//W3C//DTD SVG 1.1//EN" "http://www.w3.org/Graphics/SVG/1.1/DTD/svg11.dtd">
<svg version="1.1" id="Capa_1" xmlns="http://www.w3.org/2000/svg" xmlns:xlink="http://www.w3.org/1999/xlink" x="0px" y="0px"
	 width="120.535px" height="119.521px" viewBox="0 0 120.535 119.521" enable-background="new 0 0 120.535 119.521"
	 xml:space="preserve">
<path fill="#FFFFFF" d="M120.536,59.253c0,33.285-26.984,60.268-60.268,60.268C26.983,119.521,0,92.538,0,59.253
	C0,25.968,26.983-1.014,60.268-1.014C93.551-1.014,120.536,25.968,120.536,59.253"/>
<path fill="#1C2A8E" d="M2.238,59.489C2.229,26.851,28.445,1.293,60.08,1.267c33.034-0.027,58.133,26.703,58.217,57.787
	c0.084,31.271-25.045,58.223-58.185,58.187C27.821,117.205,2.204,90.805,2.238,59.489 M60.231,114.682
	c30.378,0.177,55.437-24.454,55.533-55.171C115.86,28.716,91.299,3.92,60.604,3.769C28.792,3.613,4.773,29.311,4.732,59.012
	C4.689,90.022,29.826,114.831,60.231,114.682"/>
<path fill="#1C2A8E" d="M98.682,59.164c0.104,21.774-17.617,38.311-37.887,38.498c-20.9,0.192-38.513-16.546-38.678-37.939
	c-0.162-21.008,16.682-38.399,38.13-38.576C81.542,20.97,98.778,38.755,98.682,59.164 M96.143,59.255
	c0.027-19.798-16.232-35.529-35.371-35.597c-20.103-0.072-36.101,15.818-36.103,35.751c-0.001,19.828,15.935,35.68,35.825,35.73
	C79.963,95.189,96.288,79.243,96.143,59.255"/>
<path fill="#1C2A8E" d="M12.313,75.128c2.424,0.181,4.694,0.18,6.963,0.205c0.525,0.006,1.05,0.092,1.573,0.077
	c0.623-0.019,0.828,0.347,0.949,0.857c0.091,0.387,0.009,0.64-0.41,0.761c-2.915,0.845-5.828,1.696-8.74,2.552
	c-0.361,0.106-0.595,0.054-0.699-0.353c-0.116-0.45,0.192-0.536,0.496-0.625c2.133-0.624,4.267-1.245,6.401-1.866
	c0.317-0.093,0.634-0.185,1.066-0.312c-0.417-0.195-0.744-0.179-1.065-0.186c-2.365-0.053-4.73-0.105-7.095-0.154
	c-0.388-0.008-0.754,0.019-0.906-0.487c-0.149-0.495,0.136-0.684,0.467-0.909c2.269-1.546,4.531-3.103,6.753-4.768
	c-1.28,0.393-2.558,0.789-3.839,1.179c-1.189,0.36-2.377,0.725-3.573,1.064c-0.321,0.091-0.716,0.281-0.886-0.253
	c-0.183-0.575,0.258-0.633,0.617-0.738c2.752-0.811,5.503-1.619,8.259-2.412c0.329-0.095,0.76-0.379,0.946,0.215
	c0.154,0.494,0.373,0.958-0.256,1.373c-2.214,1.461-4.397,2.97-6.591,4.462C12.631,74.888,12.523,74.973,12.313,75.128"/>
<path fill="#1C2A8E" d="M39.344,21.103c-1.293-1.979-2.586-3.959-3.877-5.939c-0.157-0.24-0.305-0.485-0.456-0.729
	c-0.145-0.236-0.158-0.442,0.113-0.607c0.264-0.161,0.518-0.279,0.752,0.036c0.128,0.173,0.253,0.348,0.369,0.529
	c1.488,2.338,2.978,4.676,4.456,7.021c0.173,0.274,0.554,0.564,0.134,0.927c-0.416,0.358-0.825,0.604-1.403,0.212
	c-2.136-1.448-4.294-2.864-6.447-4.287c-0.211-0.139-0.396-0.337-0.804-0.385c0.575,0.887,1.099,1.698,1.626,2.506
	c0.849,1.301,1.704,2.597,2.546,3.902c0.197,0.305,0.529,0.636,0.004,0.96c-0.485,0.301-0.634-0.112-0.819-0.396
	c-1.588-2.445-3.172-4.892-4.746-7.346c-0.148-0.231-0.506-0.502-0.105-0.791c0.366-0.264,0.693-0.667,1.261-0.289
	c1.829,1.219,3.683,2.402,5.526,3.601c0.598,0.39,1.192,0.783,1.787,1.176C39.289,21.17,39.315,21.136,39.344,21.103"/>
<path fill="#1C2A8E" d="M92.532,92.964c0.107-0.008,0.186,0.009,0.238-0.02c1.219-0.664,2.092-0.427,3.227,0.92
	c0.809,0.961,0.779,1.961-0.018,3.161c-0.615,0.927-1.479,1.616-2.268,2.378c-0.348,0.338-0.559,0.033-0.77-0.178
	c-1.148-1.145-2.295-2.296-3.438-3.447c-0.943-0.948-1.865-1.918-2.83-2.843c-0.367-0.352-0.367-0.618-0.035-0.953
	c0.742-0.745,1.494-1.482,2.367-2.071c0.865-0.584,1.826-0.506,2.664,0.139c0.957,0.74,1.25,1.566,0.932,2.625
	C92.577,92.76,92.559,92.848,92.532,92.964 M95.422,95.786c-0.004-1.533-1.355-2.482-2.604-2.03
	c-0.766,0.276-1.309,0.853-1.865,1.41c-0.238,0.237-0.133,0.423,0.051,0.609c0.734,0.75,1.467,1.501,2.205,2.246
	c0.174,0.175,0.389,0.341,0.629,0.149C94.68,97.502,95.374,96.735,95.422,95.786 M89.993,90.589
	c-0.92,0.047-1.455,0.789-2.088,1.392c-0.266,0.255-0.262,0.47,0.004,0.718c0.367,0.339,0.725,0.689,1.08,1.041
	c1.242,1.227,1.498,1.195,2.461-0.307c0.064-0.1,0.127-0.202,0.18-0.309C92.155,92.047,91.27,90.614,89.993,90.589"/>
<path fill="#1C2A8E" d="M14.629,43.871c1.539,0.013,2.851,1.444,2.85,3.109c-0.002,1.596-1.37,2.921-3.025,2.929
	c-1.621,0.008-2.984-1.443-2.962-3.156C11.514,45.133,12.9,43.857,14.629,43.871"/>
<path fill="#1C2A8E" d="M105.797,44.22c1.664,0.012,3.033,1.389,3.002,3.021c-0.029,1.619-1.432,2.966-3.088,2.967
	c-1.641,0.001-2.867-1.343-2.852-3.127C102.872,45.411,104.11,44.208,105.797,44.22"/>
<path fill="#1C2A8E" d="M43.083,108.096c-1.248-0.065-2.432-0.507-3.605-0.987c-0.474-0.194-0.28-0.547-0.176-0.847
	c0.803-2.323,1.617-4.643,2.43-6.963c0.174-0.495,0.369-0.983,0.536-1.48c0.136-0.403,0.38-0.494,0.774-0.368
	c0.819,0.262,1.646,0.496,2.409,0.904c1.702,0.91,2.328,2.072,2.07,3.992c-0.223,1.658-0.796,3.192-1.843,4.52
	C45.031,107.687,44.159,108.069,43.083,108.096 M46.482,101.577c-0.034-0.262-0.056-0.523-0.105-0.78
	c-0.252-1.321-1.321-1.688-2.392-2.097c-0.586-0.225-0.834-0.108-1.035,0.492c-0.683,2.037-1.416,4.058-2.139,6.08
	c-0.456,1.276-0.464,1.273,0.872,1.68c1.502,0.456,2.372,0.259,3.19-0.841C45.868,104.774,46.336,103.231,46.482,101.577"/>
<path fill="#1C2A8E" d="M47.356,16.85c0,1.444-0.449,2.402-1.492,3.078c-0.869,0.563-1.804,0.973-2.765,1.34
	c-0.452,0.173-0.71,0.04-0.888-0.406c-1.108-2.771-2.231-5.538-3.348-8.306c-0.12-0.3-0.235-0.596,0.197-0.764
	c1.021-0.398,1.994-0.922,3.092-1.116c1.071-0.188,1.994,0.085,2.764,0.832C46.487,13.03,47.181,14.946,47.356,16.85 M42.683,11.599
	c-0.897,0.006-1.604,0.304-2.314,0.592c-0.332,0.135-0.315,0.368-0.203,0.646c0.933,2.306,1.861,4.613,2.792,6.919
	c0.092,0.228,0.196,0.419,0.511,0.402c1.018-0.052,2.462-1.22,2.698-2.206c0.397-1.659-0.899-5.021-2.307-5.986
	C43.471,11.699,43.042,11.573,42.683,11.599"/>
<path fill="#1C2A8E" d="M100.495,27.159c-0.025,1.28-0.703,2.265-1.498,3.17c-0.85,0.963-1.881,1.695-3.084,2.163
	c-1.658,0.646-2.953,0.349-4.146-0.967c-0.514-0.566-0.977-1.177-1.496-1.739c-0.314-0.342-0.133-0.555,0.117-0.771
	c1.143-0.983,2.283-1.964,3.432-2.939c1.146-0.975,2.314-1.926,3.445-2.919c0.379-0.334,0.59-0.327,0.908,0.079
	c0.572,0.732,1.26,1.375,1.754,2.173C100.258,25.945,100.506,26.508,100.495,27.159 M99.448,26.994
	c0.053-0.939-0.563-1.565-1.059-2.267c-0.416-0.589-0.746-0.545-1.248-0.101c-1.502,1.327-3.049,2.603-4.561,3.917
	c-1.67,1.452-1.506,0.799-0.135,2.431c0.604,0.719,1.438,1,2.395,0.716c1.93-0.575,3.332-1.801,4.336-3.514
	C99.383,27.821,99.465,27.42,99.448,26.994"/>
<path fill="#1C2A8E" d="M105.678,65.991c1.574,0.106,3.316,0.535,4.85,1.63c1.049,0.747,1.539,1.774,1.379,3.034
	c-0.172,1.357-0.967,2.355-2.281,2.68c-2.699,0.669-5.215,0.111-7.27-1.777c-1.879-1.726-1.15-4.5,1.287-5.303
	C104.213,66.066,104.803,65.981,105.678,65.991 M107.952,72.452c0.238,0,0.477,0.011,0.715-0.002
	c1.176-0.058,2.078-0.67,2.324-1.571c0.254-0.929-0.225-1.943-1.285-2.556c-1.215-0.7-2.535-1.099-3.941-1.162
	c-0.715-0.033-1.43-0.056-2.123,0.197c-1.566,0.571-1.947,2.151-0.801,3.368c0.281,0.3,0.609,0.538,0.979,0.712
	C105.127,72.055,106.491,72.461,107.952,72.452"/>
<path fill="#1C2A8E" d="M73.596,16.706c0.115-1.825,0.818-3.696,2.234-5.257c1.146-1.262,2.539-1.598,3.871-1.009
	c1.303,0.576,2.109,2.003,1.936,3.606c-0.191,1.784-0.744,3.461-1.865,4.891c-0.832,1.062-1.898,1.799-3.313,1.643
	C74.667,20.383,73.592,18.974,73.596,16.706 M74.645,17.23c0.055,0.628,0.131,1.197,0.498,1.673
	c0.859,1.114,2.342,1.049,3.387-0.162c1.264-1.463,1.887-3.196,2.055-5.097c0.1-1.146-0.418-2.082-1.268-2.446
	c-0.816-0.349-1.705-0.11-2.506,0.741C75.405,13.437,74.85,15.289,74.645,17.23"/>
<path fill="#1C2A8E" d="M48.618,106.38c0.001-1.687,0.378-3.271,1.36-4.672c0.825-1.176,1.929-1.789,3.39-1.492
	c1.482,0.301,2.317,1.276,2.58,2.735c0.354,1.977-0.016,3.862-0.889,5.639c-0.804,1.636-2.221,2.408-3.691,2.115
	c-1.642-0.328-2.58-1.479-2.746-3.394C48.595,107.004,48.618,106.69,48.618,106.38 M54.919,104.224c0-0.31,0.022-0.621-0.005-0.93
	c-0.094-1.148-0.678-1.979-1.527-2.205c-0.964-0.258-1.768,0.102-2.475,1.141c-0.818,1.198-1.139,2.562-1.235,3.983
	c-0.06,0.89,0.032,1.769,0.425,2.585c0.457,0.954,1.409,1.324,2.398,0.965c0.594-0.216,0.996-0.648,1.314-1.162
	C54.648,107.262,54.922,105.774,54.919,104.224"/>
<path fill="#1C2A8E" d="M62.526,14.204c-1.43-0.051-1.424-0.05-1.827,1.306c-0.129,0.434-0.291,0.858-0.449,1.284
	c-0.17,0.465-0.566,0.509-0.947,0.396c-0.499-0.149-0.191-0.514-0.105-0.766c0.963-2.875,1.95-5.743,2.906-8.621
	c0.171-0.513,0.432-0.718,0.982-0.697c0.533,0.02,0.682,0.313,0.785,0.746c0.713,2.972,1.438,5.941,2.146,8.914
	c0.058,0.242,0.281,0.608-0.173,0.706c-0.383,0.082-0.778,0.074-0.896-0.449c-0.152-0.676-0.357-1.341-0.472-2.023
	c-0.103-0.616-0.399-0.87-1.019-0.802C63.15,14.231,62.836,14.204,62.526,14.204 M63.07,8.609c-0.061,0.003-0.123,0.005-0.184,0.008
	c-0.297,0.928-0.59,1.857-0.891,2.784c-0.627,1.937-0.627,1.937,1.414,1.91c0.047-0.001,0.094-0.002,0.143,0.002
	c0.335,0.021,0.5-0.112,0.425-0.466C63.675,11.435,63.373,10.022,63.07,8.609"/>
<path fill="#1C2A8E" d="M38.729,95.897c-0.216,0.933-0.449,1.934-0.679,2.936c-0.482,2.098-0.957,4.195-1.449,6.289
	c-0.058,0.247-0.034,0.662-0.479,0.543c-0.372-0.099-0.736-0.261-0.599-0.795c0.189-0.741,0.338-1.492,0.53-2.233
	c0.099-0.385,0.002-0.646-0.348-0.833c-0.632-0.339-1.264-0.679-1.885-1.037c-0.345-0.198-0.583-0.061-0.821,0.181
	c-0.504,0.511-1.027,1.003-1.518,1.526c-0.369,0.393-0.729,0.32-1.059,0.006c-0.372-0.354,0.037-0.561,0.227-0.748
	c2.19-2.174,4.392-4.334,6.588-6.498c0.233-0.229,0.461-0.447,0.804-0.211C38.341,95.228,38.785,95.315,38.729,95.897
	 M37.651,96.388c-1.229,0.933-2.212,2.059-3.234,3.146c-0.252,0.27-0.196,0.441,0.11,0.603c0.484,0.257,0.963,0.521,1.439,0.789
	c0.325,0.184,0.511,0.144,0.608-0.259C36.921,99.238,37.291,97.813,37.651,96.388"/>
<path fill="#1C2A8E" d="M89.731,101.758c0.021,0.746-0.297,1.346-0.828,1.837c-0.244,0.226-0.516,0.428-0.797,0.605
	c-1.539,0.969-2.848,0.777-3.971-0.661c-1.047-1.336-2.021-2.727-3.025-4.095c-0.355-0.481-0.703-0.967-1.057-1.448
	c-0.234-0.317-0.385-0.608,0.043-0.907c0.42-0.294,0.6,0.01,0.801,0.283c1.129,1.543,2.256,3.089,3.387,4.631
	c0.367,0.5,0.709,1.024,1.225,1.395c0.869,0.626,1.637,0.57,2.537-0.183c0.711-0.595,0.889-1.439,0.391-2.321
	c-0.424-0.747-0.922-1.454-1.422-2.152c-0.906-1.263-1.842-2.504-2.756-3.76c-0.197-0.27-0.43-0.559-0.041-0.867
	c0.281-0.223,0.531-0.299,0.783,0.056c1.414,1.987,2.938,3.896,4.238,5.961C89.547,100.62,89.737,101.164,89.731,101.758"/>
<path fill="#1C2A8E" d="M24.536,82.361c0.015,1.37-0.715,2.458-1.829,2.923c-1.163,0.486-2.247,0.347-3.196-0.509
	c-0.579-0.522-0.938-1.212-1.26-1.899c-0.28-0.598-0.593-0.627-1.111-0.316c-0.777,0.466-1.584,0.883-2.376,1.324
	c-0.334,0.187-0.6,0.236-0.818-0.188c-0.213-0.414-0.039-0.613,0.299-0.796c2.602-1.411,5.203-2.824,7.801-4.243
	c0.435-0.238,0.744-0.201,0.992,0.272C23.656,80.108,24.419,81.226,24.536,82.361 M21.201,84.497
	c1.819-0.029,2.815-1.536,2.137-3.134c-0.148-0.351-0.349-0.681-0.5-1.03c-0.22-0.509-0.527-0.613-1.012-0.318
	c-0.55,0.334-1.127,0.627-1.691,0.938c-1.7,0.94-1.725,1.071-0.469,2.62C20.081,84.085,20.543,84.531,21.201,84.497"/>
<path fill="#1C2A8E" d="M80.231,102.468c-0.059,0.664-0.324,1.318-0.955,1.816c-0.625,0.494-1.318,0.863-2.039,1.181
	c-0.451,0.199-0.545,0.421-0.313,0.874c0.447,0.869,0.834,1.77,1.258,2.653c0.15,0.317,0.205,0.565-0.209,0.743
	c-0.371,0.16-0.602,0.148-0.793-0.264c-1.252-2.682-2.516-5.356-3.795-8.025c-0.262-0.549-0.199-0.849,0.422-1.069
	c0.762-0.272,1.473-0.685,2.225-0.983C78.256,98.509,80.268,99.938,80.231,102.468 M76.721,100.06
	c-0.404,0.022-1.057,0.385-1.738,0.663c-0.42,0.173-0.521,0.418-0.311,0.835c0.303,0.594,0.557,1.213,0.848,1.812
	c0.844,1.737,1.227,1.817,2.775,0.585c0.201-0.161,0.387-0.359,0.529-0.573c0.516-0.781,0.297-1.547-0.094-2.296
	C78.383,100.42,77.856,100.029,76.721,100.06"/>
<path fill="#1C2A8E" d="M60.453,111.965c-1.127-0.102-2.176-0.374-2.813-1.429c-0.156-0.258-0.474-0.62-0.033-0.852
	c0.349-0.186,0.769-0.129,0.966,0.318c0.582,1.315,2.614,1.312,3.482,0.512c0.82-0.756,0.872-1.869,0.068-2.651
	c-0.59-0.575-1.346-0.9-2.041-1.317c-0.896-0.537-1.721-1.143-1.994-2.233c-0.264-1.054,0.15-2.025,1.085-2.568
	c1.444-0.84,3.622-0.475,4.407,0.763c0.172,0.272,0.566,0.659,0.176,0.926c-0.367,0.248-0.778,0.078-1.072-0.377
	c-0.668-1.032-1.854-1.233-2.872-0.553c-0.724,0.484-0.884,1.254-0.431,1.998c0.352,0.577,0.912,0.898,1.463,1.236
	c0.568,0.351,1.152,0.679,1.704,1.055c0.895,0.61,1.409,1.454,1.256,2.557c-0.17,1.223-0.897,2.03-2.078,2.41
	C61.314,111.892,60.893,111.974,60.453,111.965"/>
<path fill="#1C2A8E" d="M31.43,28.609c0,1.931-1.77,3.682-3.58,3.525c-0.289-0.025-0.766,0.016-0.76-0.348
	c0.006-0.412,0.351-0.677,0.841-0.704c1.44-0.08,2.124-0.552,2.467-1.644c0.461-1.465-0.616-2.695-2.114-2.407
	c-0.875,0.168-1.678,0.551-2.503,0.868c-0.769,0.296-1.548,0.483-2.376,0.211c-1.307-0.43-1.962-1.591-1.566-2.95
	c0.408-1.399,1.375-2.259,2.785-2.618c0.069-0.019,0.142-0.039,0.212-0.032c0.41,0.038,0.998-0.051,1.016,0.503
	c0.015,0.477-0.452,0.686-0.948,0.635c-1.079-0.108-1.702,0.461-2.078,1.396c-0.4,0.996,0.221,1.968,1.302,2.045
	c0.589,0.041,1.137-0.115,1.676-0.322c0.692-0.264,1.374-0.56,2.078-0.786C29.766,25.377,31.43,26.621,31.43,28.609"/>
<path fill="#1C2A8E" d="M103.153,60.845c0.025-0.726,0.389-1.723,1.453-2.334c0.244-0.142,0.594-0.416,0.813-0.041
	c0.189,0.33,0.094,0.717-0.299,0.914c-0.967,0.488-1.152,1.326-1.061,2.3c0.057,0.601,0.354,1.032,0.906,1.271
	c0.557,0.241,1.08,0.143,1.547-0.227c0.457-0.36,0.793-0.824,1.107-1.307c0.445-0.679,0.842-1.392,1.422-1.975
	c1.252-1.261,3.014-1.133,4.086,0.305c1.172,1.569,0.725,4.17-0.885,5.053c-0.246,0.136-0.6,0.462-0.813,0.108
	c-0.209-0.348-0.135-0.743,0.324-1.022c1.031-0.627,1.414-1.766,1.025-2.84c-0.514-1.43-2.154-1.793-3.143-0.645
	c-0.604,0.702-1.074,1.52-1.605,2.284c-0.521,0.751-1.16,1.349-2.111,1.463C104.276,64.35,103.149,63.173,103.153,60.845"/>
<path fill="#1C2A8E" d="M105.967,34.135c0.027,0.288-0.162,0.362-0.338,0.438c-0.268,0.114-0.385-0.066-0.502-0.264
	c-0.449-0.761-0.934-1.503-1.35-2.282c-0.275-0.514-0.549-0.55-1.008-0.236c-0.65,0.443-1.332,0.843-2.012,1.243
	c-0.34,0.199-0.408,0.408-0.186,0.751c0.35,0.541,0.666,1.105,0.998,1.659c0.146,0.246,0.23,0.485-0.082,0.676
	c-0.311,0.19-0.49,0.016-0.639-0.232c-0.332-0.553-0.68-1.099-0.986-1.665c-0.201-0.366-0.414-0.482-0.795-0.245
	c-0.893,0.556-1.791,1.1-2.697,1.636c-0.346,0.205-0.203,0.437-0.066,0.664c0.465,0.779,0.949,1.548,1.41,2.33
	c0.16,0.271,0.451,0.58-0.014,0.844c-0.414,0.234-0.547-0.11-0.705-0.37c-0.631-1.042-1.25-2.093-1.893-3.129
	c-0.279-0.452-0.252-0.729,0.258-1.024c2.543-1.474,5.066-2.982,7.592-4.488c0.371-0.223,0.666-0.343,0.941,0.136
	c0.643,1.119,1.313,2.223,1.969,3.334C105.913,33.991,105.944,34.082,105.967,34.135"/>
<path fill="#1C2A8E" d="M14.465,64.227c0.065,0.69,0.122,1.308,0.184,1.926c0.027,0.278-0.051,0.466-0.363,0.501
	c-0.336,0.037-0.394-0.177-0.428-0.437c-0.084-0.64-0.19-1.276-0.26-1.917c-0.046-0.416-0.244-0.604-0.66-0.554
	c-0.971,0.118-1.942,0.243-2.915,0.354c-0.438,0.049-0.533,0.258-0.465,0.681c0.142,0.896,0.236,1.8,0.328,2.702
	c0.028,0.271,0.096,0.62-0.328,0.671c-0.402,0.048-0.475-0.287-0.513-0.56c-0.173-1.253-0.32-2.511-0.476-3.767
	c-0.065-0.525,0.281-0.654,0.693-0.708c2.25-0.292,4.499-0.586,6.75-0.868c0.687-0.086,1.381-0.121,2.067-0.211
	c0.459-0.061,0.662,0.112,0.71,0.563c0.127,1.212,0.281,2.42,0.41,3.631c0.029,0.274,0.101,0.623-0.32,0.674
	c-0.436,0.052-0.413-0.323-0.455-0.587c-0.139-0.872-0.277-1.745-0.373-2.623c-0.049-0.447-0.248-0.558-0.664-0.496
	c-0.756,0.111-1.516,0.195-2.276,0.279C14.608,63.536,14.271,63.7,14.465,64.227"/>
<path fill="#1C2A8E" d="M34.368,92.866c-0.007,0.182-0.093,0.323-0.235,0.422c-0.199,0.139-0.371,0.02-0.519-0.1
	c-0.686-0.557-1.386-1.1-2.042-1.691c-0.416-0.376-0.711-0.369-1.056,0.077c-0.453,0.585-0.937,1.147-1.424,1.705
	c-0.343,0.396-0.405,0.692,0.108,1.027c0.477,0.312,0.888,0.723,1.324,1.096c0.224,0.192,0.455,0.394,0.178,0.713
	c-0.253,0.292-0.476,0.103-0.68-0.062c-0.504-0.403-0.996-0.82-1.496-1.229c-0.258-0.21-0.496-0.249-0.739,0.046
	c-0.638,0.775-1.277,1.55-1.94,2.302c-0.305,0.347-0.213,0.545,0.112,0.807c0.726,0.583,1.424,1.202,2.127,1.813
	c0.21,0.183,0.497,0.358,0.21,0.7c-0.276,0.33-0.512,0.121-0.734-0.061c-1.018-0.832-2.021-1.682-3.046-2.503
	c-0.431-0.346-0.194-0.618,0.041-0.9c0.995-1.192,1.998-2.378,2.993-3.571c0.872-1.046,1.745-2.091,2.6-3.151
	c0.367-0.455,0.678-0.566,1.169-0.122c0.885,0.801,1.827,1.54,2.744,2.304C34.189,92.595,34.346,92.675,34.368,92.866"/>
<path fill="#1C2A8E" d="M105.831,80.791c0.785,0.005,1.508-0.158,1.855-0.95c0.365-0.833,0.113-1.587-0.449-2.255
	c-0.092-0.108-0.203-0.204-0.299-0.31c-0.295-0.318-0.08-0.581,0.117-0.818c0.258-0.309,0.453-0.078,0.646,0.11
	c0.959,0.928,1.318,2.263,0.891,3.329c-0.492,1.227-1.57,1.973-2.998,1.91c-2.516-0.112-4.645-1.133-6.217-3.099
	c-1.561-1.946-0.609-4.496,1.748-4.915c0.285-0.051,0.568-0.06,0.85,0.021c0.26,0.076,0.539,0.149,0.469,0.51
	c-0.057,0.293-0.184,0.555-0.537,0.581c-0.166,0.013-0.334,0.004-0.502,0c-0.738-0.017-1.4,0.171-1.746,0.881
	c-0.375,0.771-0.166,1.5,0.338,2.144c0.633,0.804,1.461,1.375,2.363,1.83C103.452,80.31,104.573,80.788,105.831,80.791"/>
<path fill="#1C2A8E" d="M51.746,11.618c-0.064-0.933,0.121-2.007,0.721-2.975c0.578-0.933,1.412-1.529,2.535-1.483
	c1.135,0.046,1.981,0.648,2.512,1.656c0.136,0.261,0.348,0.587-0.118,0.767c-0.366,0.141-0.675,0.158-0.868-0.307
	c-0.331-0.799-0.934-1.299-1.828-1.228c-0.945,0.074-1.424,0.754-1.631,1.589c-0.533,2.146-0.294,4.229,0.736,6.186
	c0.393,0.745,1.023,1.312,1.964,1.167c0.888-0.136,1.312-0.799,1.563-1.596c0.043-0.136,0.073-0.277,0.113-0.414
	c0.129-0.44,0.477-0.434,0.813-0.355c0.379,0.09,0.267,0.389,0.197,0.642c-0.367,1.357-1.173,2.322-2.592,2.573
	c-1.318,0.232-2.25-0.498-2.941-1.521C52.008,14.965,51.736,13.419,51.746,11.618"/>
<path fill="#1C2A8E" d="M73.538,9.495c-0.424-0.08-0.854-0.129-1.266-0.248c-0.549-0.158-0.77,0.042-0.879,0.581
	c-0.521,2.573-1.072,5.141-1.615,7.71c-0.053,0.25-0.055,0.536-0.361,0.646c-0.49,0.177-0.842-0.161-0.725-0.744
	c0.447-2.198,0.914-4.393,1.369-6.59c0.092-0.444,0.146-0.896,0.262-1.334c0.127-0.476-0.002-0.72-0.508-0.788
	c-0.473-0.063-0.938-0.183-1.404-0.282c-0.268-0.057-0.436-0.195-0.367-0.501c0.064-0.28,0.232-0.407,0.521-0.347
	c1.752,0.369,3.504,0.737,5.254,1.108c0.242,0.051,0.389,0.18,0.324,0.455C74.063,9.504,73.831,9.546,73.538,9.495"/>
<path fill="#1C2A8E" d="M26.943,85.563c-0.031,0.251-0.208,0.379-0.375,0.516c-2.056,1.676-4.103,3.362-6.176,5.018
	c-0.442,0.352-0.497,0.604-0.115,1.036c0.65,0.731,1.24,1.517,1.873,2.265c0.208,0.245,0.367,0.45,0.053,0.719
	c-0.327,0.28-0.525,0.043-0.71-0.182c-0.917-1.102-1.82-2.215-2.744-3.313c-0.32-0.379-0.026-0.563,0.204-0.754
	c1.012-0.84,2.035-1.664,3.053-2.496c1.314-1.073,2.628-2.147,3.942-3.22c0.162-0.132,0.317-0.351,0.555-0.206
	C26.729,85.085,26.879,85.309,26.943,85.563"/>
<path fill="#1C2A8E" d="M92.387,86.238c0.168,0.114,0.371,0.237,0.557,0.384c1.99,1.57,3.99,3.131,5.961,4.725
	c0.531,0.43,0.869,0.513,1.297-0.145c0.479-0.739,1.082-1.398,1.641-2.085c0.188-0.229,0.359-0.579,0.74-0.271
	c0.322,0.262,0.123,0.508-0.059,0.74c-0.818,1.061-1.645,2.115-2.461,3.178c-0.26,0.339-0.516,0.444-0.896,0.148
	c-2.379-1.848-4.787-3.663-7.092-5.605c-0.195-0.164-0.463-0.317-0.275-0.645C91.918,86.454,92.059,86.259,92.387,86.238"/>
<path fill="#1C2A8E" d="M50.999,18.216c0.033,0.169-0.104,0.311-0.345,0.368c-0.254,0.063-0.53,0.154-0.699-0.147
	c-0.08-0.145-0.127-0.311-0.167-0.472c-0.71-2.825-1.419-5.65-2.123-8.478c-0.078-0.313-0.242-0.66,0.274-0.797
	c0.446-0.118,0.657,0.038,0.776,0.472c0.799,2.901,1.557,5.812,2.233,8.744C50.964,17.976,50.971,18.048,50.999,18.216"/>
<path fill="#1C2A8E" d="M27.745,19.112c0.293,0.023,0.42,0.175,0.542,0.318c1.973,2.305,3.94,4.615,5.917,6.917
	c0.262,0.305,0.234,0.534-0.056,0.788c-0.295,0.258-0.533,0.238-0.791-0.059c-2.01-2.305-4.025-4.604-5.934-6.994
	c-0.128-0.159-0.349-0.333-0.168-0.559C27.397,19.347,27.609,19.223,27.745,19.112"/>
<path fill="#1C2A8E" d="M104.901,85.81c-0.021,0.662-0.496,0.873-0.979,0.565c-2.234-1.421-4.461-2.85-6.691-4.276
	c-0.281-0.181-0.561-0.364-0.846-0.537c-0.314-0.189-0.549-0.385-0.285-0.795c0.236-0.367,0.48-0.469,0.877-0.207
	c2.512,1.65,5.031,3.287,7.547,4.93C104.702,85.604,104.897,85.714,104.901,85.81"/>
<path fill="#1C2A8E" d="M51.729,42.424c0.067-1.025,0.135-1.824,0.172-2.625c0.041-0.927,0.045-0.954,1.002-0.938
	c4.615,0.082,9.23,0.206,13.846,0.249c5.526,0.05,11.049,0.234,16.577,0.195c1.67-0.012,2.957,0.937,4.117,1.973
	c3.475,3.102,4.625,7.028,4.088,11.596c-0.805,6.836-6.318,10.266-12.098,10.577c-0.74,0.04-1.48,0.102-2.221,0.102
	c-0.529,0-0.709,0.213-0.709,0.73c-0.002,1.506-0.061,3.012-0.1,4.518c-0.105,3.969-0.129,7.941-0.195,11.911
	c-0.037,2.271-0.105,4.543-0.131,6.813c-0.006,0.594-0.23,0.789-0.813,0.783c-2.393-0.025-4.785-0.03-7.178-0.012
	c-0.59,0.004-0.802-0.205-0.809-0.79c-0.023-2.033-0.103-4.065-0.119-6.097c-0.006-0.639-0.206-0.879-0.87-0.893
	c-4.089-0.08-8.177-0.196-12.265-0.308c-0.717-0.019-1.433-0.101-2.148-0.099c-0.551,0.002-0.783-0.245-0.811-0.766
	c-0.051-0.954-0.109-1.908-0.17-2.863c-0.013-0.184,0.072-0.437-0.111-0.531c-0.256-0.133-0.369,0.156-0.5,0.297
	c-1.796,1.927-3.942,3.266-6.537,3.788c-4.615,0.928-8.611-0.099-11.615-3.919c-1.801-2.291-2.754-4.958-3.187-7.822
	c-0.297-1.96-0.248-1.699,1.493-1.71c1.579-0.01,3.159,0.017,4.737-0.012c0.626-0.011,0.837,0.143,0.716,0.819
	c-0.349,1.941,0.553,3.394,2.009,4.535c1.415,1.11,3.016,1.292,4.672,0.617c2.119-0.865,2.788-2.921,1.611-4.895
	c-0.925-1.552-2.344-2.629-3.702-3.766c-2.55-2.134-5.126-4.246-7.145-6.925c-1.394-1.849-2.562-3.827-2.945-6.156
	c-0.909-5.537,2.114-10.533,7.49-12.144c3.671-1.099,7.323-0.929,10.81,0.851C49.93,40.142,50.904,41.06,51.729,42.424
	 M51.523,63.813c0.068-0.129,0.107-0.166,0.107-0.205c0.047-3.609,0.086-7.219,0.139-10.827c0.008-0.503-0.229-0.653-0.695-0.68
	c-1.504-0.084-3.003-0.214-4.505-0.3c-0.573-0.032-0.826-0.249-0.88-0.859c-0.134-1.502-0.42-2.971-1.088-4.355
	c-1.409-2.917-3.933-2.608-5.733-1.376c-1.073,0.733-1.45,1.807-1.151,3.074c0.469,1.989,1.633,3.456,3.332,4.569
	c1.961,1.285,3.81,2.726,5.558,4.292C48.683,59.005,50.209,61.277,51.523,63.813 M67.975,50.278c0-1.648-0.014-3.297,0.008-4.945
	c0.006-0.518-0.17-0.726-0.704-0.722c-2.174,0.016-4.348,0.016-6.521-0.005c-0.55-0.006-0.777,0.175-0.754,0.745
	c0.061,1.455,0.096,2.912,0.114,4.368c0.024,1.887,0.034,3.775,0.026,5.662c-0.002,0.519,0.174,0.737,0.707,0.72
	c2.147-0.068,4.299,0.034,6.446-0.125c0.539-0.041,0.691-0.248,0.685-0.752C67.963,53.576,67.975,51.927,67.975,50.278
	 M67.731,68.263h0.023c0-1.46-0.041-2.921,0.02-4.377c0.023-0.588-0.125-0.755-0.693-0.749c-2.129,0.023-4.259,0.033-6.388-0.003
	c-0.68-0.012-0.857,0.239-0.842,0.879c0.07,2.965,0.123,5.932,0.135,8.896c0.004,0.686,0.255,0.857,0.889,0.835
	c2.055-0.073,4.111-0.117,6.167-0.144c0.546-0.007,0.699-0.244,0.695-0.744C67.721,71.325,67.731,69.794,67.731,68.263
	 M76.663,50.829c0,1.242,0,2.484,0,3.725c0,2.187,0.021,2.206,2.221,2.082c2.684-0.15,3.938-1.178,4.641-3.753
	c0.273-1.006,0.338-2.024,0.279-3.053c-0.219-3.822-3.604-5.252-6.383-4.856c-0.574,0.081-0.781,0.395-0.77,0.983
	C76.686,47.58,76.663,49.205,76.663,50.829"/>
</svg>
